<?xml version="1.0" encoding="utf-8"?>
<svg version="1.1" id="Layer_1" xmlns="http://www.w3.org/2000/svg" xmlns:xlink="http://www.w3.org/1999/xlink" x="0px" y="0px"
	 viewBox="0 0 129.3 40" style="enable-background:new 0 0 129.3 40;" xml:space="preserve">
<style type="text/css">
	.st0{fill:#CCCCCC;}
	.st1{fill:#6699FF;}
	.st2{fill:#99BBFF;}
	.st3{fill:#3377FF;}
</style>
<path class="st0" d="M38.6,8.8h9.5c5.5,0,8.7,3.4,8.7,8.2s-3.2,8.1-8.8,8.1h-4.3V33h-5.1V8.8z M47.2,21c2.9,0,4.3-1.6,4.3-4
	s-1.4-4-4.4-4h-3.4v8H47.2z"/>
<path class="st0" d="M57.9,10c0.1-1.5,1.4-2.6,2.9-2.6c1.4,0.1,2.5,1.2,2.6,2.6c-0.1,1.5-1.4,2.6-2.9,2.6C59,12.5,57.9,11.4,57.9,10
	z M58,14.9h5V33h-5V14.9z"/>
<path class="st0" d="M75.3,18.6h-3.4v8.8c0,1.4,0.7,1.8,1.7,1.8c0.4,0,0.8-0.1,1.2-0.2l0.8,3.7c-0.9,0.3-1.8,0.5-2.7,0.5
	c-3.6,0.2-6-1.6-6-5.1v-9.4h-2.5v-3.8h2.5v-4.3h5v4.3h3.4L75.3,18.6z"/>
<path class="st0" d="M87.4,20.3c-0.3-1.4-1.6-2.3-3-2.1c-1.6,0-2.8,0.7-2.8,1.8c0,0.9,0.6,1.5,2.3,1.8l3.3,0.7
	c3.5,0.7,5.2,2.3,5.2,4.9c0,3.6-3.4,6-8.1,6s-7.7-2.1-8.2-5.6l4.9-0.3c0.3,1.5,1.5,2.2,3.3,2.2s2.9-0.8,3-1.8c0-0.9-0.7-1.5-2.3-1.8
	l-3.1-0.6c-3.5-0.7-5.2-2.5-5.2-5.2c0-3.5,3-5.6,7.7-5.6s7.2,2,7.6,5.3L87.4,20.3z"/>
<path class="st0" d="M93.7,8.8h5v9.1h0.2c0.9-2.1,2.9-3.4,5.2-3.3c4,0,7.3,3.1,7.3,9.3c0,6.1-3.2,9.3-7.3,9.3
	c-2.2,0.1-4.2-1.2-5.1-3.2h-0.2V33h-5L93.7,8.8z M102.5,29.3c2.5,0,3.8-2.2,3.8-5.4s-1.3-5.3-3.8-5.3s-3.8,2.1-3.8,5.3
	S100,29.3,102.5,29.3z"/>
<path class="st0" d="M112.4,39.5l1.1-3.9c1.8,0.5,3,0.4,3.7-1.2l0.3-0.9L111,14.9h5.3l3.8,13.3h0.2l3.8-13.3h5.3l-7,20.1
	c-0.9,3.1-3.7,5.1-6.9,5C114.4,40,113.3,39.8,112.4,39.5z"/>
<path class="st1" d="M0,15.8v7.4l8.3-8.3L1.7,8.3C0.5,10.6-0.1,13.2,0,15.8z"/>
<path class="st2" d="M1.7,8.3l6.6,6.6l8.3-8.3L11,0.9C7,2,3.7,4.7,1.7,8.3z"/>
<path class="st3" d="M14.3,0.4c-1.1,0-2.2,0.2-3.3,0.5l5.6,5.7l4.7-4.7C19.1,0.9,16.7,0.3,14.3,0.4z"/>
<path class="st3" d="M10.2,13l-8.3,8.3l0,0v8.2c0,0.2,0,0.4,0,0.6c0.1,2.1,0.9,4,2.3,5.5l6-6l8.3-8.3L10.2,13z"/>
<rect x="12.7" y="7.1" transform="matrix(0.707 -0.7072 0.7072 0.707 -3.7401 16.9336)" class="st1" width="11.8" height="11.8"/>
<path class="st2" d="M23.2,0l-4.7,4.7l8.3,8.3l4-4C29.7,5.1,26.9,1.8,23.2,0z"/>
<path class="st2" d="M8.3,31.5l-5.9,6c3.2,3.3,8.5,3.3,11.8,0.1c0,0,0.1-0.1,0.1-0.1L8.3,31.5z"/>
<path class="st1" d="M21.8,28.4l-5.1-5.1l-8.3,8.3l6,6c1.6-1.6,2.4-3.8,2.4-6.1V30C18.5,29.8,20.2,29.2,21.8,28.4z"/>
<path class="st3" d="M29.1,19.1L25,14.9l-8.3,8.3l5.1,5.1C25.4,26.4,28.1,23.1,29.1,19.1z"/>
<path class="st2" d="M29.1,19.1c0.4-1.4,0.6-2.9,0.5-4.4c-0.1-1.3-0.3-2.6-0.6-3.9l-4,4L29.1,19.1z"/>
</svg>
