<svg id="Layer_1" data-name="Layer 1" xmlns="http://www.w3.org/2000/svg" viewBox="0 0 129.33 40"><defs><style>.cls-1{fill:#333;}.cls-2{fill:#69f;}.cls-3{fill:#9bf;}.cls-4{fill:#37f;}</style></defs><title>logo</title><path class="cls-1" d="M38.59,8.83h9.52c5.48,0,8.65,3.38,8.65,8.17S53.53,25.13,48,25.13H43.69V33h-5.1ZM47.15,21c2.93,0,4.35-1.64,4.35-4s-1.42-4-4.37-4H43.69v8Z" transform="translate(0)"/><path class="cls-1" d="M57.86,10a2.72,2.72,0,0,1,5.43,0,2.72,2.72,0,0,1-5.43,0Zm.19,4.88h5V33h-5Z" transform="translate(0)"/><path class="cls-1" d="M75.31,18.63h-3.4v8.76c0,1.39.69,1.77,1.69,1.77A7.42,7.42,0,0,0,74.85,29l.79,3.73a9.25,9.25,0,0,1-2.72.47c-3.64.16-6-1.6-6-5.15V18.63H64.42V14.86h2.47V10.52h5v4.34h3.4Z" transform="translate(0)"/><path class="cls-1" d="M87.4,20.3a2.82,2.82,0,0,0-3-2.12c-1.56,0-2.78.71-2.77,1.79,0,.87.61,1.45,2.29,1.82l3.28.66c3.51.72,5.22,2.28,5.23,4.9,0,3.57-3.37,6-8.06,6s-7.74-2.13-8.21-5.6l4.94-.26c.3,1.48,1.49,2.24,3.28,2.24s2.93-.76,3-1.84c0-.9-.74-1.48-2.32-1.8l-3.14-.62c-3.53-.71-5.24-2.47-5.23-5.17,0-3.49,3-5.64,7.67-5.64S91.55,16.69,92,20Z" transform="translate(0)"/><path class="cls-1" d="M93.74,8.83h5V17.9h.15a5.35,5.35,0,0,1,5.15-3.28c4,0,7.33,3.09,7.33,9.31,0,6.06-3.22,9.32-7.34,9.32a5.37,5.37,0,0,1-5.14-3.19h-.22V33h-5Zm8.72,20.43c2.46,0,3.8-2.2,3.8-5.35s-1.31-5.29-3.8-5.29-3.81,2.06-3.81,5.29S100,29.26,102.46,29.26Z" transform="translate(0)"/><path class="cls-1" d="M112.37,39.45l1.13-3.89c1.77.54,3,.43,3.69-1.21l.33-.88L111,14.86h5.27l3.75,13.29h.19L124,14.86h5.31L122.26,35a6.87,6.87,0,0,1-6.88,5A7.76,7.76,0,0,1,112.37,39.45Z" transform="translate(0)"/><path class="cls-2" d="M0,15.8v7.42l8.31-8.31L1.73,8.32A14.64,14.64,0,0,0,0,15.8Z" transform="translate(0)"/><path class="cls-3" d="M1.73,8.32l6.59,6.59L16.64,6.6,11,.94A14.83,14.83,0,0,0,1.73,8.32Z" transform="translate(0)"/><path class="cls-4" d="M14.29.44A15,15,0,0,0,11,.94L16.64,6.6l4.68-4.67A14.7,14.7,0,0,0,14.29.44Z" transform="translate(0)"/><path class="cls-4" d="M10.25,13,1.94,21.3h0v8.18a5.61,5.61,0,0,0,0,.58,8.22,8.22,0,0,0,2.35,5.5l6-6,8.31-8.31Z" transform="translate(0)"/><rect class="cls-2" x="12.69" y="7.11" width="11.76" height="11.76" transform="translate(-3.75 16.93) rotate(-45.01)"/><path class="cls-3" d="M23.24,0,18.56,4.68,26.88,13l4-4A14.85,14.85,0,0,0,23.24,0Z" transform="translate(0)"/><path class="cls-3" d="M8.32,31.53l-5.95,6a8.33,8.33,0,0,0,11.91,0Z" transform="translate(0)"/><path class="cls-2" d="M21.77,28.35l-5.13-5.13L8.32,31.53l6,6a8.32,8.32,0,0,0,2.36-6.11V30A14.6,14.6,0,0,0,21.77,28.35Z" transform="translate(0)"/><path class="cls-4" d="M29.15,19.11,25,14.91l-8.31,8.31,5.13,5.13A14.85,14.85,0,0,0,29.15,19.11Z" transform="translate(0)"/><path class="cls-3" d="M29.15,19.11a14.52,14.52,0,0,0,.5-4.39A15.21,15.21,0,0,0,29,10.87l-4.05,4Z" transform="translate(0)"/></svg>